<svg width="1243" height="868" viewBox="0 0 1243 868" fill="none" xmlns="http://www.w3.org/2000/svg">
<path d="M160.325 827.113C174.751 853.86 205.368 865.343 205.368 865.343C205.368 865.343 212.596 833.458 198.17 806.71C183.744 779.963 153.127 768.48 153.127 768.48C153.127 768.48 145.899 800.365 160.325 827.113Z" fill="#2F2E41"/>
<path d="M170.241 818.313C196.285 833.979 206.316 865.096 206.316 865.096C206.316 865.096 174.12 870.813 148.075 855.147C122.031 839.481 112 808.364 112 808.364C112 808.364 144.196 802.647 170.241 818.313Z" fill="#955CF6"/>
<path d="M754.163 41.6699H591.663V43.9909H754.163V41.6699Z" fill="#F2F2F2"/>
<path d="M710.056 43.4106H707.734V64.8794H710.056V43.4106Z" fill="#F2F2F2"/>
<path d="M639.253 43.4106H636.932V64.8794H639.253V43.4106Z" fill="#F2F2F2"/>
<path d="M836.574 153.075H674.074V155.396H836.574V153.075Z" fill="#F2F2F2"/>
<path d="M720.503 132.187H718.182V153.656H720.503V132.187Z" fill="#F2F2F2"/>
<path d="M791.306 132.187H788.984V153.656H791.306V132.187Z" fill="#F2F2F2"/>
<path d="M1052.47 205.297H889.967V207.618H1052.47V205.297Z" fill="#F2F2F2"/>
<path d="M936.396 184.408H934.074V205.877H936.396V184.408Z" fill="#F2F2F2"/>
<path d="M1007.2 184.408H1004.88V205.877H1007.2V184.408Z" fill="#F2F2F2"/>
<path d="M1036.22 743.756H873.717V746.077H1036.22V743.756Z" fill="#F2F2F2"/>
<path d="M920.146 722.867H917.824V744.336H920.146V722.867Z" fill="#F2F2F2"/>
<path d="M990.949 722.867H988.628V744.336H990.949V722.867Z" fill="#F2F2F2"/>
<path d="M758.807 371.244H596.307V373.565H758.807V371.244Z" fill="#F2F2F2"/>
<path d="M642.735 350.356H640.413V371.824H642.735V350.356Z" fill="#F2F2F2"/>
<path d="M713.538 350.356H711.217V371.824H713.538V350.356Z" fill="#F2F2F2"/>
<path d="M809.878 650.918H647.378V653.239H809.878V650.918Z" fill="#F2F2F2"/>
<path d="M693.806 630.029H691.484V651.498H693.806V630.029Z" fill="#F2F2F2"/>
<path d="M764.61 630.029H762.288V651.498H764.61V630.029Z" fill="#F2F2F2"/>
<path d="M1069.88 566.203H907.378V568.524H1069.88V566.203Z" fill="#F2F2F2"/>
<path d="M953.806 545.315H951.484V566.784H953.806V545.315Z" fill="#F2F2F2"/>
<path d="M1024.61 545.315H1022.29V566.784H1024.61V545.315Z" fill="#F2F2F2"/>
<path d="M532.248 814.865H257.407V812.889H530.27V717.01H280.512L268.379 691.739L270.162 690.884L281.757 715.033H532.248V814.865Z" fill="#2F2E41"/>
<path d="M293.987 863.298C305.453 863.298 314.748 854.005 314.748 842.541C314.748 831.077 305.453 821.784 293.987 821.784C282.521 821.784 273.226 831.077 273.226 842.541C273.226 854.005 282.521 863.298 293.987 863.298Z" fill="#3F3D56"/>
<path d="M498.634 863.298C510.101 863.298 519.396 854.005 519.396 842.541C519.396 831.077 510.101 821.784 498.634 821.784C487.168 821.784 477.873 831.077 477.873 842.541C477.873 854.005 487.168 863.298 498.634 863.298Z" fill="#3F3D56"/>
<path d="M739.862 414.551C746.96 414.551 752.714 408.798 752.714 401.701C752.714 394.604 746.96 388.851 739.862 388.851C732.764 388.851 727.01 394.604 727.01 401.701C727.01 408.798 732.764 414.551 739.862 414.551Z" fill="#3F3D56"/>
<path d="M561.644 684.392H252.721L185.878 465.949H630.483L630.078 467.234L561.644 684.392ZM254.184 682.415H560.194L627.787 467.926H188.55L254.184 682.415Z" fill="#2F2E41"/>
<path d="M537.53 673.025H266.192L207.48 479.292H597.992L597.637 480.433L537.53 673.025Z" fill="#F2F2F2"/>
<path d="M636.022 446.434L634.11 445.926L647.158 396.758H723.056V398.736H648.68L636.022 446.434Z" fill="#2F2E41"/>
<path d="M608.265 532.174H207.479V534.151H608.265V532.174Z" fill="#2F2E41"/>
<path d="M585.313 605.005H229.765V606.982H585.313V605.005Z" fill="#2F2E41"/>
<path d="M409.163 466.937H407.186V683.404H409.163V466.937Z" fill="#2F2E41"/>
<path d="M497.689 466.875L483.495 683.336L485.469 683.466L499.662 467.005L497.689 466.875Z" fill="#2F2E41"/>
<path d="M318.701 466.873L316.728 467.002L330.839 683.468L332.812 683.339L318.701 466.873Z" fill="#2F2E41"/>
<path d="M1152 864.552H112V866.873H1152V864.552Z" fill="#2F2E41"/>
<path d="M803.102 71.8053C803.102 71.8053 820.069 120.088 809.628 127.516C799.186 134.945 844.868 195.608 844.868 195.608L899.688 180.751L869.668 129.992C869.668 129.992 865.752 79.2334 865.752 71.8053C865.752 64.3771 803.102 71.8053 803.102 71.8053Z" fill="#A0616A"/>
<path opacity="0.1" d="M803.102 71.8053C803.102 71.8053 820.069 120.088 809.628 127.516C799.186 134.945 844.868 195.608 844.868 195.608L899.688 180.751L869.668 129.992C869.668 129.992 865.752 79.2334 865.752 71.8053C865.752 64.3771 803.102 71.8053 803.102 71.8053Z" fill="black"/>
<path d="M774.621 415.976C774.621 415.976 769.668 477.877 774.621 510.066C779.574 542.254 787.004 631.392 787.004 631.392C787.004 631.392 787.004 799.763 814.246 802.239C841.489 804.715 861.301 807.191 863.778 797.287C866.254 787.383 851.395 782.431 858.824 777.479C866.254 772.527 868.731 755.194 858.824 735.386C848.918 715.578 858.824 515.018 858.824 515.018L905.879 641.296C905.879 641.296 910.832 745.29 915.785 760.147C920.739 775.003 910.832 802.239 928.168 804.715C945.504 807.191 965.317 792.335 975.223 787.383C985.129 782.431 960.364 782.431 965.317 779.955C970.27 777.479 985.129 770.051 980.176 767.575C975.223 765.099 970.27 646.248 970.27 646.248C970.27 646.248 956.649 392.453 939.313 382.549C921.977 372.645 910.832 389.705 910.832 389.705L774.621 415.976Z" fill="#2F2E41"/>
<path d="M819.199 792.335V812.143C819.199 812.143 796.91 865.989 819.199 865.989C841.488 865.989 858.824 871.569 858.824 864.14V797.287L819.199 792.335Z" fill="#2F2E41"/>
<path d="M965.316 792.3V812.108C965.316 812.108 987.606 865.954 965.316 865.954C943.027 865.954 925.691 871.533 925.691 864.105V797.252L965.316 792.3Z" fill="#2F2E41"/>
<path d="M837.773 107.708C862.393 107.708 882.352 87.7539 882.352 63.1392C882.352 38.5245 862.393 18.5703 837.773 18.5703C813.154 18.5703 793.195 38.5245 793.195 63.1392C793.195 87.7539 813.154 107.708 837.773 107.708Z" fill="#A0616A"/>
<path d="M824.152 146.087C824.152 146.087 836.535 183.227 856.348 175.799L876.16 168.371L910.832 406.072C910.832 406.072 883.59 445.688 843.965 420.928C804.34 396.167 824.152 146.087 824.152 146.087Z" fill="#955CF6"/>
<path d="M858.824 138.659L869.969 115.136C869.969 115.136 935.598 146.087 945.504 155.991C955.41 165.895 955.41 180.751 955.41 180.751L938.074 242.653C938.074 242.653 943.027 378.835 943.027 383.787C943.027 388.739 960.363 415.976 947.981 406.072C935.598 396.168 933.121 386.263 923.215 401.12C913.309 415.976 891.02 433.308 891.02 433.308L858.824 138.659Z" fill="#3F3D56"/>
<path d="M945.504 316.934L938.074 386.263C938.074 386.263 893.496 425.88 903.402 428.356C913.308 430.832 918.262 420.928 918.262 420.928C918.262 420.928 935.598 438.26 945.504 428.356C955.41 418.452 980.176 324.362 980.176 324.362L945.504 316.934Z" fill="#A0616A"/>
<path d="M838.723 0.150712C828.84 -0.202501 818.265 -0.377223 809.932 4.94719C806.099 7.61928 802.736 10.9102 799.982 14.6853C791.867 24.9421 784.855 37.8475 787.87 50.5734L791.371 49.2082C791.371 52.6051 790.615 55.9595 789.159 59.0288C789.652 57.5955 791.304 59.9125 790.862 61.3623L787.005 74.0123C793.345 71.6886 801.231 76.3934 802.196 83.0752C802.637 68.3822 804.162 51.534 816.083 42.9306C822.095 38.592 829.704 37.2675 837.024 36.0914C843.778 35.0063 850.858 33.9717 857.326 36.1945C863.795 38.4173 869.303 45.0315 867.837 51.7111C870.819 50.6839 874.155 52.7621 875.629 55.5506C877.103 58.3391 877.181 61.6285 877.225 64.7822C880.404 67.0287 884.023 62.5678 885.318 58.8973C888.36 50.2816 891.063 41.1103 889.425 32.1217C887.786 23.1332 880.46 14.5432 871.322 14.5127C872.431 13.2946 873.023 11.6929 872.972 10.0464L865.44 9.41009C867.352 9.13939 869.111 8.21242 870.414 6.78795C867.39 10.1149 843.613 0.32549 838.723 0.150712Z" fill="#2F2E41"/>
<path d="M836.535 131.23C836.535 131.23 816.375 111.478 809.119 112.688C801.863 113.898 791.957 131.23 791.957 131.23C791.957 131.23 732.52 151.039 734.996 170.847C737.473 190.656 764.715 287.221 764.715 287.221C764.715 287.221 787.004 403.596 767.191 415.976C747.379 428.356 861.301 460.545 863.777 445.688C866.254 430.832 871.207 282.269 863.777 259.985C856.348 237.7 836.535 131.23 836.535 131.23Z" fill="#3F3D56"/>
<path d="M923.215 170.847H953.838C953.838 170.847 975.223 264.937 977.699 274.841C980.176 284.745 985.129 331.79 982.652 331.79C980.176 331.79 930.645 321.886 930.645 329.314L923.215 170.847Z" fill="#3F3D56"/>
<path d="M922.178 403.844H804.946C793.506 351.228 792.55 300.392 804.946 251.822H922.178C903.259 299.519 902.077 350.007 922.178 403.844Z" fill="#F2F2F2"/>
<path d="M757.285 339.218L791.957 354.075C791.957 354.075 858.824 363.979 858.824 336.743C858.824 309.506 791.957 324.362 791.957 324.362L769.666 317.237L757.285 339.218Z" fill="#A0616A"/>
<path d="M764.714 155.991L734.996 163.419L712.707 294.65C712.707 294.65 705.277 329.314 717.66 331.79C730.043 334.266 764.714 354.075 764.714 354.075C764.714 354.075 769.668 316.934 779.574 316.934L754.808 297.126L769.668 210.464L764.714 155.991Z" fill="#3F3D56"/>
<path d="M344.432 409.54H181.932V411.861H344.432V409.54Z" fill="#F2F2F2"/>
<path d="M228.36 388.651H226.038V410.12H228.36V388.651Z" fill="#F2F2F2"/>
<path d="M299.163 388.651H296.842V410.12H299.163V388.651Z" fill="#F2F2F2"/>
<path d="M401.307 66.0398H238.807V68.3607H401.307V66.0398Z" fill="#F2F2F2"/>
<path d="M357.199 67.7805H354.878V89.2493H357.199V67.7805Z" fill="#F2F2F2"/>
<path d="M286.396 67.7805H284.074V89.2493H286.396V67.7805Z" fill="#F2F2F2"/>
<path d="M564.967 294.653H402.467V296.974H564.967V294.653Z" fill="#F2F2F2"/>
<path d="M520.86 296.394H518.538V317.862H520.86V296.394Z" fill="#F2F2F2"/>
<path d="M450.057 296.394H447.735V317.862H450.057V296.394Z" fill="#F2F2F2"/>
<path d="M288.717 293.492H126.217V295.813H288.717V293.492Z" fill="#F2F2F2"/>
<path d="M244.61 295.233H242.288V316.702H244.61V295.233Z" fill="#F2F2F2"/>
<path d="M173.807 295.233H171.485V316.702H173.807V295.233Z" fill="#F2F2F2"/>
<path d="M483.717 177.445H321.217V179.766H483.717V177.445Z" fill="#F2F2F2"/>
<path d="M367.646 156.557H365.324V178.025H367.646V156.557Z" fill="#F2F2F2"/>
<path d="M438.449 156.557H436.128V178.025H438.449V156.557Z" fill="#F2F2F2"/>
<rect x="1229" y="134" width="544" height="154" rx="25" transform="rotate(90 1229 134)" fill="#CAE1F7" stroke="#1092F0" stroke-width="10" stroke-dasharray="20 20"/>
</svg>
