<svg width="1354" height="1000" viewBox="0 0 1354 1000" fill="none" xmlns="http://www.w3.org/2000/svg">
<path d="M650.397 752.362L207.164 878.685C192.129 882.95 176.18 880.44 162.815 871.706C149.449 862.972 139.76 848.727 135.873 832.097L1.83518 255.978C-2.01822 239.338 0.249501 221.686 8.14084 206.894C16.0322 192.102 28.9027 181.378 43.9288 177.075L456.285 59.5522L561.82 111.843L692.491 673.457C696.344 690.097 694.077 707.75 686.186 722.543C678.294 737.335 665.423 748.059 650.397 752.362Z" fill="#F2F2F2"/>
<path d="M48.124 195.138C37.4236 198.202 28.2581 205.839 22.6383 216.372C17.0186 226.906 15.4036 239.477 18.1476 251.326L152.194 827.447C154.962 839.29 161.862 849.434 171.379 855.654C180.896 861.873 192.254 863.661 202.961 860.624L646.194 734.303C656.894 731.239 666.06 723.602 671.68 713.069C677.299 702.535 678.914 689.964 676.17 678.114L547.525 125.198L454.772 79.2417L48.124 195.138Z" fill="white"/>
<path d="M560.694 114.821L492.098 134.372C487.09 135.799 481.775 134.965 477.322 132.055C472.87 129.145 469.644 124.397 468.354 118.855L455.308 62.7808C455.251 62.5355 455.258 62.2774 455.327 62.0361C455.397 61.7948 455.526 61.58 455.701 61.4164C455.876 61.2528 456.088 61.1469 456.315 61.1109C456.541 61.0749 456.773 61.1101 456.982 61.2127L560.885 112.282C561.117 112.396 561.31 112.587 561.439 112.828C561.568 113.068 561.626 113.348 561.605 113.627C561.584 113.906 561.485 114.171 561.321 114.385C561.158 114.599 560.939 114.751 560.694 114.821Z" fill="#F2F2F2"/>
<path d="M524.606 606.809L322.808 664.327C320.31 665.022 317.665 664.595 315.45 663.138C313.236 661.682 311.632 659.314 310.99 656.553C310.347 653.792 310.718 650.862 312.022 648.403C313.325 645.944 315.455 644.156 317.946 643.429L519.744 585.911C520.987 585.548 522.282 585.462 523.554 585.655C524.827 585.848 526.053 586.318 527.161 587.038C528.27 587.758 529.238 588.713 530.012 589.848C530.786 590.983 531.349 592.277 531.669 593.654C531.99 595.031 532.061 596.465 531.879 597.873C531.697 599.28 531.265 600.634 530.609 601.857C529.953 603.079 529.084 604.146 528.054 604.996C527.024 605.846 525.852 606.462 524.606 606.809Z" fill="#CCCCCC"/>
<path d="M571.753 630.974L331.012 699.587C329.77 699.95 328.475 700.037 327.202 699.843C325.929 699.65 324.703 699.18 323.595 698.46C322.487 697.74 321.518 696.786 320.744 695.65C319.971 694.515 319.408 693.221 319.087 691.844C318.767 690.467 318.696 689.033 318.878 687.626C319.06 686.218 319.491 684.864 320.148 683.641C320.804 682.419 321.672 681.352 322.702 680.502C323.733 679.652 324.905 679.036 326.151 678.69L566.892 610.076C569.39 609.381 572.035 609.808 574.25 611.264C576.464 612.721 578.068 615.088 578.71 617.85C579.353 620.611 578.981 623.541 577.678 626C576.374 628.459 574.244 630.247 571.753 630.974Z" fill="#CCCCCC"/>
<path d="M240.448 733.592C259.478 733.592 274.905 716.518 274.905 695.456C274.905 674.394 259.478 657.32 240.448 657.32C221.417 657.32 205.99 674.394 205.99 695.456C205.99 716.518 221.417 733.592 240.448 733.592Z" fill="#7C3AED"/>
<path d="M503.149 507.006L235.14 583.361C227.394 585.557 219.178 584.264 212.293 579.764C205.408 575.263 200.417 567.924 198.416 559.357L142.253 317.875C140.27 309.304 141.44 300.212 145.506 292.594C149.572 284.976 156.202 279.453 163.941 277.238L431.949 200.882C439.694 198.686 447.911 199.98 454.795 204.48C461.68 208.98 466.671 216.319 468.673 224.887L524.837 466.368C526.82 474.94 525.65 484.031 521.584 491.65C517.518 499.268 510.888 504.79 503.149 507.006Z" fill="white"/>
<path d="M503.149 507.006L235.14 583.361C227.394 585.557 219.178 584.264 212.293 579.764C205.408 575.263 200.417 567.924 198.416 559.357L142.253 317.875C140.27 309.304 141.44 300.212 145.506 292.594C149.572 284.976 156.202 279.453 163.941 277.238L431.949 200.882C439.694 198.686 447.911 199.98 454.795 204.48C461.68 208.98 466.671 216.319 468.673 224.887L524.837 466.368C526.82 474.94 525.65 484.031 521.584 491.65C517.518 499.268 510.888 504.79 503.149 507.006ZM164.825 281.033C157.996 282.99 152.147 287.865 148.561 294.588C144.975 301.311 143.945 309.334 145.696 316.897L201.86 558.379C203.628 565.937 208.033 572.41 214.107 576.379C220.182 580.348 227.431 581.488 234.264 579.55L502.267 503.202C509.096 501.246 514.945 496.371 518.531 489.648C522.117 482.924 523.147 474.901 521.395 467.339L465.236 225.857C463.468 218.299 459.064 211.825 452.989 207.857C446.914 203.888 439.665 202.747 432.832 204.686L164.825 281.033Z" fill="#E6E6E6"/>
<path d="M418.353 282.072L283.096 320.607C281.914 320.973 280.65 320.828 279.561 320.202C278.472 319.576 277.638 318.515 277.227 317.235C277.036 316.566 276.971 315.86 277.034 315.162C277.098 314.464 277.289 313.787 277.597 313.174C277.904 312.56 278.322 312.022 278.824 311.593C279.325 311.164 279.901 310.852 280.515 310.677L418.2 271.451C423.763 274.57 422.299 280.95 418.354 282.074L418.353 282.072Z" fill="#F2F2F2"/>
<path d="M424.454 308.322L289.198 346.858C288.016 347.223 286.752 347.078 285.663 346.452C284.573 345.826 283.739 344.766 283.329 343.485C283.138 342.816 283.072 342.111 283.136 341.413C283.199 340.714 283.391 340.038 283.698 339.424C284.006 338.81 284.423 338.273 284.925 337.843C285.427 337.414 286.002 337.103 286.616 336.928L424.302 297.701C429.864 300.821 428.4 307.2 424.456 308.324L424.454 308.322Z" fill="#F2F2F2"/>
<path d="M263.437 370.146L222.157 381.903C221.49 382.093 220.795 382.136 220.112 382.029C219.429 381.922 218.773 381.667 218.179 381.279C217.585 380.891 217.067 380.378 216.652 379.768C216.238 379.158 215.937 378.464 215.765 377.725L203.225 323.822C203.053 323.083 203.014 322.314 203.11 321.559C203.207 320.803 203.437 320.076 203.788 319.419C204.138 318.762 204.602 318.188 205.154 317.73C205.705 317.271 206.332 316.938 207 316.748L248.279 304.987C249.627 304.605 251.057 304.831 252.255 305.614C253.454 306.397 254.322 307.674 254.671 309.165L267.212 363.081C267.384 363.82 267.422 364.589 267.326 365.344C267.229 366.1 266.999 366.827 266.648 367.484C266.298 368.141 265.834 368.715 265.283 369.173C264.732 369.632 264.104 369.965 263.437 370.155V370.146Z" fill="#7C3AED"/>
<path d="M436.57 362.208L230.139 421.019C228.957 421.384 227.693 421.239 226.604 420.613C225.515 419.987 224.68 418.927 224.27 417.647C224.079 416.977 224.014 416.272 224.077 415.574C224.141 414.876 224.332 414.199 224.64 413.585C224.947 412.972 225.365 412.434 225.867 412.005C226.368 411.575 226.944 411.264 227.558 411.089L436.418 351.585C441.98 354.704 440.514 361.084 436.57 362.208Z" fill="#F2F2F2"/>
<path d="M442.682 388.471L236.248 447.284C235.065 447.649 233.802 447.504 232.712 446.878C231.623 446.252 230.789 445.192 230.379 443.911C230.188 443.242 230.122 442.537 230.186 441.839C230.249 441.141 230.441 440.464 230.748 439.85C231.056 439.237 231.473 438.699 231.975 438.27C232.477 437.84 233.052 437.529 233.666 437.354L442.526 377.85C448.089 380.969 446.625 387.349 442.68 388.473L442.682 388.471Z" fill="#F2F2F2"/>
<path d="M448.784 414.723L242.353 473.534C241.171 473.9 239.907 473.755 238.818 473.129C237.728 472.503 236.894 471.442 236.484 470.162C236.293 469.493 236.228 468.788 236.291 468.089C236.355 467.391 236.546 466.714 236.854 466.101C237.161 465.487 237.579 464.949 238.08 464.52C238.582 464.091 239.157 463.779 239.772 463.605L448.63 404.1C454.193 407.22 452.728 413.599 448.784 414.723Z" fill="#F2F2F2"/>
<path d="M454.895 440.987L248.462 499.798C247.28 500.163 246.017 500.018 244.927 499.392C243.838 498.766 243.004 497.706 242.593 496.426C242.403 495.756 242.337 495.051 242.4 494.353C242.464 493.655 242.655 492.978 242.963 492.365C243.271 491.751 243.688 491.213 244.19 490.784C244.691 490.355 245.267 490.043 245.881 489.868L454.741 430.364C460.302 433.483 458.839 439.863 454.895 440.987Z" fill="#F2F2F2"/>
<path d="M460.999 467.237L254.568 526.049C253.386 526.414 252.122 526.269 251.033 525.643C249.943 525.017 249.109 523.957 248.699 522.676C248.508 522.007 248.442 521.302 248.506 520.603C248.569 519.905 248.761 519.229 249.069 518.615C249.376 518.001 249.794 517.463 250.295 517.034C250.797 516.605 251.372 516.294 251.986 516.119L460.847 456.614C466.407 459.734 464.943 466.113 460.999 467.237Z" fill="#F2F2F2"/>
<path d="M1085.49 903.926L636.202 807.269C620.968 803.972 607.538 794.122 598.859 779.879C590.18 765.636 586.96 748.165 589.906 731.298L692.47 147.314C695.449 130.455 704.348 115.592 717.216 105.986C730.084 96.3799 745.869 92.8153 761.108 96.0741L1179.09 185.997L1254.11 283.399L1154.12 852.68C1151.15 869.54 1142.25 884.405 1129.38 894.012C1116.51 903.619 1100.73 907.185 1085.49 903.926Z" fill="#E6E6E6"/>
<path d="M757.892 114.385C747.04 112.064 735.799 114.603 726.636 121.443C717.473 128.284 711.135 138.868 709.014 150.873L606.45 734.857C604.353 746.868 606.647 759.309 612.827 769.45C619.008 779.592 628.571 786.606 639.418 788.953L1088.7 885.61C1099.55 887.93 1110.79 885.392 1119.96 878.551C1129.12 871.711 1135.46 861.127 1137.58 849.121L1236.01 288.662L1170.09 203.063L757.892 114.385Z" fill="white"/>
<path d="M1089.97 362.047L885.415 318.041C882.877 317.495 880.639 315.855 879.193 313.483C877.747 311.11 877.212 308.199 877.705 305.39C878.199 302.581 879.68 300.104 881.824 298.504C883.967 296.904 886.597 296.311 889.135 296.857L1093.69 340.865C1096.23 341.411 1098.47 343.05 1099.91 345.423C1101.36 347.795 1101.9 350.706 1101.4 353.515C1100.91 356.324 1099.43 358.801 1097.28 360.401C1095.14 362.002 1092.51 362.594 1089.97 362.048L1089.97 362.047Z" fill="#7C3AED"/>
<path d="M1123.16 406.287L879.136 353.788C876.598 353.242 874.359 351.602 872.914 349.23C871.468 346.857 870.933 343.947 871.426 341.138C871.919 338.328 873.401 335.851 875.544 334.251C877.688 332.651 880.318 332.059 882.856 332.605L1126.88 385.104C1129.42 385.65 1131.66 387.289 1133.11 389.662C1134.55 392.034 1135.09 394.945 1134.59 397.754C1134.1 400.563 1132.62 403.04 1130.48 404.64C1128.33 406.241 1125.7 406.833 1123.16 406.287Z" fill="#7C3AED"/>
<path d="M1065.56 501.055L861.007 457.05C858.47 456.504 855.84 457.096 853.696 458.696C851.553 460.296 850.072 462.773 849.578 465.582C849.085 468.391 849.62 471.302 851.066 473.674C852.512 476.046 854.75 477.685 857.287 478.231L1061.83 522.236C1064.36 522.741 1066.96 522.126 1069.07 520.524C1071.19 518.922 1072.65 516.462 1073.14 513.677C1073.63 510.893 1073.11 508.007 1071.69 505.644C1070.27 503.282 1068.06 501.633 1065.56 501.055Z" fill="#CCCCCC"/>
<path d="M1098.75 545.299L854.728 492.801C853.464 492.51 852.16 492.499 850.893 492.77C849.625 493.041 848.419 493.588 847.344 494.38C846.269 495.171 845.346 496.19 844.63 497.379C843.914 498.568 843.418 499.903 843.172 501.305C842.926 502.708 842.934 504.151 843.195 505.55C843.457 506.95 843.967 508.277 844.696 509.457C845.425 510.636 846.358 511.643 847.442 512.42C848.525 513.197 849.737 513.728 851.008 513.982L1095.03 566.48C1096.3 566.771 1097.6 566.781 1098.87 566.51C1100.13 566.239 1101.34 565.692 1102.42 564.901C1103.49 564.11 1104.41 563.09 1105.13 561.901C1105.85 560.712 1106.34 559.378 1106.59 557.975C1106.83 556.572 1106.83 555.13 1106.56 553.73C1106.3 552.331 1105.79 551.003 1105.06 549.824C1104.33 548.645 1103.4 547.637 1102.32 546.86C1101.23 546.084 1100.02 545.553 1098.75 545.299Z" fill="#CCCCCC"/>
<path d="M1033.7 682.44L829.144 638.433C826.606 637.887 824.368 636.248 822.922 633.875C821.476 631.503 820.941 628.592 821.435 625.783C821.928 622.974 823.409 620.497 825.553 618.897C827.697 617.296 830.327 616.704 832.865 617.25L1037.42 661.258C1039.96 661.804 1042.2 663.443 1043.64 665.816C1045.09 668.188 1045.63 671.099 1045.13 673.908C1044.64 676.717 1043.16 679.194 1041.01 680.794C1038.87 682.395 1036.24 682.987 1033.7 682.441L1033.7 682.44Z" fill="#CCCCCC"/>
<path d="M1066.89 726.678L822.866 674.179C820.328 673.633 818.09 671.993 816.644 669.621C815.198 667.249 814.663 664.338 815.156 661.529C815.65 658.72 817.131 656.242 819.275 654.642C821.418 653.042 824.048 652.45 826.586 652.996L1070.61 705.495C1073.15 706.041 1075.39 707.68 1076.84 710.053C1078.28 712.425 1078.82 715.336 1078.32 718.145C1077.83 720.954 1076.35 723.431 1074.21 725.031C1072.06 726.632 1069.43 727.224 1066.89 726.678Z" fill="#CCCCCC"/>
<path d="M792.379 344.434C811.059 348.453 829.147 334.95 832.778 314.275C836.409 293.6 824.209 273.581 805.528 269.562C786.848 265.544 768.76 279.046 765.129 299.721C761.498 320.396 773.698 340.415 792.379 344.434Z" fill="#7C3AED"/>
<path d="M808.12 475.214C807.258 480.131 805.53 484.812 803.033 488.989C800.536 493.167 797.321 496.759 793.57 499.561C789.819 502.363 785.605 504.32 781.171 505.319C776.737 506.319 772.168 506.342 767.725 505.387C767.433 505.331 767.145 505.255 766.861 505.161C760.244 503.541 754.205 499.798 749.501 494.399C744.796 489 741.635 482.185 740.412 474.808C739.189 467.43 739.96 459.817 742.627 452.922C745.294 446.026 749.739 440.154 755.406 436.041C761.073 431.928 767.71 429.755 774.487 429.796C781.264 429.837 787.88 432.088 793.506 436.269C799.133 440.451 803.52 446.375 806.12 453.302C808.719 460.23 809.415 467.851 808.12 475.214Z" fill="#7C3AED"/>
<path d="M736.109 664.825C754.79 668.844 772.877 655.341 776.508 634.666C780.139 613.991 767.939 593.972 749.259 589.953C730.578 585.935 712.491 599.437 708.86 620.112C705.229 640.787 717.429 660.806 736.109 664.825Z" fill="#7C3AED"/>
<path d="M1251.93 285.548L1182.4 270.589C1177.33 269.497 1172.85 266.218 1169.96 261.473C1167.07 256.728 1166 250.907 1166.98 245.288L1176.96 188.45C1177.01 188.201 1177.11 187.971 1177.27 187.786C1177.43 187.601 1177.63 187.469 1177.85 187.404C1178.07 187.339 1178.3 187.345 1178.52 187.42C1178.74 187.495 1178.94 187.637 1179.09 187.83L1253.09 283.341C1253.26 283.554 1253.36 283.818 1253.38 284.096C1253.4 284.375 1253.35 284.655 1253.22 284.897C1253.09 285.139 1252.9 285.331 1252.67 285.447C1252.44 285.562 1252.18 285.596 1251.94 285.543L1251.93 285.548Z" fill="#CCCCCC"/>
<path d="M839.778 853.852C837.637 857.737 834.189 860.522 830.193 861.594C826.197 862.665 821.981 861.936 818.47 859.567L637.587 737.455C634.077 735.086 631.561 731.27 630.593 726.847C629.625 722.424 630.284 717.757 632.425 713.872C634.566 709.987 638.014 707.202 642.01 706.131C646.006 705.059 650.223 705.789 653.734 708.158L834.615 830.27C838.125 832.64 840.64 836.455 841.608 840.878C842.576 845.3 841.919 849.967 839.778 853.852Z" fill="#3F3D56"/>
<path d="M658.895 731.75C646.122 754.928 627.426 773.393 605.171 784.811C582.916 796.228 558.102 800.085 533.867 795.895C509.631 791.704 487.063 779.653 469.015 761.267C450.968 742.88 438.252 718.983 432.475 692.598C426.699 666.213 428.121 638.525 436.563 613.034C445.005 587.544 460.086 565.397 479.9 549.393C499.715 533.389 523.372 524.248 547.881 523.124C572.389 522.001 596.648 528.947 617.59 543.083C631.496 552.469 643.594 564.795 653.196 579.356C662.797 593.917 669.713 610.429 673.548 627.949C677.384 645.468 678.064 663.652 675.55 681.462C673.035 699.273 667.376 716.361 658.895 731.75ZM473.602 606.653C464.023 624.036 459.316 644.173 460.077 664.518C460.838 684.862 467.033 704.499 477.878 720.947C488.723 737.395 503.731 749.914 521.004 756.921C538.278 763.929 557.041 765.109 574.921 760.314C592.801 755.519 608.995 744.964 621.455 729.983C633.914 715.002 642.08 696.268 644.92 676.15C647.76 656.032 645.146 635.435 637.408 616.961C629.671 598.488 617.157 582.969 601.451 572.367C580.389 558.149 555.087 553.774 531.111 560.204C507.135 566.634 486.448 583.342 473.602 606.653Z" fill="#3F3D56"/>
<path d="M520.217 759.822C570.61 779.026 625.529 749.381 642.88 693.607C660.232 637.834 633.447 577.052 583.054 557.848C532.66 538.643 477.742 568.288 460.39 624.062C443.039 679.836 469.824 740.618 520.217 759.822Z" fill="#7C3AED"/>
</svg>
