<svg width="1883" height="868" viewBox="0 0 1883 868" fill="none" xmlns="http://www.w3.org/2000/svg">
<g clip-path="url(#clip0_649_207)">
<rect x="1732" y="28" width="544" height="154" rx="25" transform="rotate(90 1732 28)" fill="#CAE1F7" stroke="#1092F0" stroke-width="10" stroke-dasharray="20 20"/>
<rect x="448" y="105" width="544" height="154" rx="25" transform="rotate(90 448 105)" fill="#CAE1F7" stroke="#1092F0" stroke-width="10" stroke-dasharray="20 20"/>
<path d="M399.794 819.7C354.733 790.341 321.969 737.568 328.675 684.216C369.25 726.334 423.418 752.745 481.597 758.778C504.042 761.024 529.241 761.184 545.18 777.142C555.099 787.071 559.313 801.583 559.529 815.613C559.746 829.644 556.374 843.453 553.024 857.08L553.847 860.485C500.098 858.499 444.856 849.058 399.794 819.7Z" fill="#F0F0F0"/>
<path d="M329.804 684.205C346.66 725.399 376.071 760.236 413.859 783.768C421.904 788.978 430.72 792.888 439.983 795.354C449.084 797.464 458.584 797.099 467.496 794.298C475.858 791.852 484.129 788.383 492.94 788.012C497.453 787.89 501.941 788.722 506.11 790.455C510.278 792.188 514.034 794.782 517.129 798.068C525.055 806.054 529.638 816.411 533.768 826.695C538.353 838.114 542.935 850.047 552.273 858.504C553.405 859.529 551.748 861.224 550.618 860.201C534.371 845.487 532.583 821.879 519.811 804.809C513.852 796.843 505.456 790.625 495.191 790.362C486.215 790.132 477.683 793.703 469.238 796.252C460.584 799.112 451.361 799.811 442.374 798.286C433.016 796.3 424.064 792.736 415.901 787.748C397.346 776.809 380.626 763.022 366.354 746.891C349.964 728.571 336.829 707.583 327.518 684.835C326.942 683.427 329.232 682.806 329.804 684.205Z" fill="white"/>
<path d="M401.245 776.907C396.435 782.709 389.719 786.614 382.295 787.922C374.872 789.231 367.225 787.859 360.72 784.052C359.407 783.277 360.549 781.2 361.865 781.976C367.916 785.532 375.039 786.81 381.949 785.577C388.859 784.344 395.101 780.682 399.548 775.252C400.515 774.074 402.207 775.735 401.245 776.907Z" fill="white"/>
<path d="M463.418 796.096C462.119 780.746 455.08 766.449 443.705 756.057C442.577 755.029 444.233 753.333 445.36 754.361C457.177 765.197 464.471 780.089 465.789 796.066C465.913 797.589 463.542 797.61 463.418 796.096Z" fill="white"/>
<path d="M352.945 727.579C355.274 725.722 357.105 723.315 358.274 720.575C359.443 717.836 359.913 714.849 359.641 711.883C359.498 710.362 361.869 710.342 362.012 711.853C362.296 715.131 361.773 718.429 360.489 721.459C359.204 724.489 357.197 727.158 354.643 729.234C354.418 729.449 354.12 729.572 353.809 729.576C353.498 729.58 353.196 729.465 352.967 729.255C352.743 729.035 352.615 728.735 352.611 728.421C352.607 728.107 352.727 727.805 352.945 727.579Z" fill="white"/>
<path d="M482.383 586.584C482.5 587.531 482.616 588.478 482.751 589.434C484.387 602.157 487.054 614.725 490.726 627.016C490.994 627.97 491.281 628.934 491.577 629.879C500.739 659.396 515.302 686.955 534.528 711.157C542.187 720.78 550.567 729.807 559.596 738.159C572.066 749.693 586.504 761.207 594.208 775.757C595.029 777.266 595.755 778.825 596.383 780.424L557.938 859.217C557.761 859.352 557.601 859.497 557.423 859.633L556.032 862.849C555.537 862.451 555.031 862.027 554.535 861.629C554.247 861.399 553.967 861.152 553.678 860.922C553.489 860.763 553.299 860.604 553.119 860.471C553.056 860.419 552.993 860.365 552.947 860.321C552.767 860.189 552.614 860.047 552.452 859.923C549.619 857.562 546.798 855.178 543.988 852.769C543.97 852.761 543.97 852.761 543.961 852.734C522.601 834.328 502.591 813.977 486.306 791.236C485.816 790.552 485.308 789.859 484.836 789.139C477.553 778.848 471.123 767.979 465.611 756.641C462.612 750.422 459.931 744.056 457.576 737.567C451.525 720.788 448.151 703.162 447.579 685.335C446.443 649.796 456.688 614.29 480.541 588.534C481.152 587.875 481.754 587.233 482.383 586.584Z" fill="#F0F0F0"/>
<path d="M483.298 587.249C471.948 630.286 474.452 675.804 490.452 717.338C493.738 726.341 498.422 734.769 504.333 742.313C510.329 749.476 518.134 754.903 526.937 758.031C535.086 761.112 543.779 763.319 551.037 768.327C554.715 770.946 557.797 774.312 560.082 778.204C562.367 782.097 563.803 786.429 564.295 790.916C565.814 802.063 563.236 813.091 560.34 823.788C557.125 835.665 553.597 847.951 555.96 860.325C556.246 861.824 553.903 862.18 553.617 860.683C549.505 839.155 562.295 819.23 562.378 797.913C562.417 787.966 559.457 777.947 551.42 771.558C544.391 765.972 535.429 763.687 527.15 760.639C518.518 757.714 510.733 752.721 504.476 746.094C498.2 738.876 493.199 730.642 489.686 721.745C481.458 701.843 476.411 680.77 474.73 659.3C472.676 634.807 474.828 610.144 481.093 586.376C481.482 584.905 483.684 585.787 483.298 587.249Z" fill="white"/>
<path d="M484.512 704.268C477.177 706.005 469.463 705.08 462.748 701.657C456.033 698.234 450.753 692.535 447.852 685.58C447.27 684.171 449.434 683.2 450.017 684.611C452.706 691.093 457.624 696.401 463.884 699.576C470.144 702.75 477.333 703.584 484.153 701.925C485.635 701.566 485.986 703.911 484.512 704.268Z" fill="white"/>
<path d="M522.598 757.013C530.805 743.974 533.794 728.322 530.97 713.178C530.689 711.678 533.033 711.321 533.313 712.819C536.223 728.584 533.078 744.866 524.509 758.415C523.691 759.706 521.785 758.296 522.598 757.013Z" fill="white"/>
<path d="M475.653 635.81C478.632 635.729 481.543 634.91 484.126 633.426C486.709 631.942 488.883 629.84 490.453 627.308C491.253 626.007 493.159 627.419 492.363 628.711C490.616 631.5 488.212 633.818 485.362 635.464C482.512 637.11 479.302 638.034 476.012 638.153C475.703 638.19 475.392 638.108 475.141 637.924C474.89 637.74 474.718 637.467 474.661 637.161C474.615 636.851 474.694 636.535 474.88 636.282C475.065 636.029 475.343 635.859 475.653 635.81Z" fill="white"/>
<path d="M1774.96 819.7C1820.03 790.341 1852.79 737.568 1846.08 684.216C1805.51 726.334 1751.34 752.745 1693.16 758.778C1670.72 761.024 1645.52 761.184 1629.58 777.142C1619.66 787.071 1615.45 801.583 1615.23 815.613C1615.01 829.644 1618.39 843.453 1621.74 857.08L1620.91 860.485C1674.66 858.499 1729.9 849.058 1774.96 819.7Z" fill="#F0F0F0"/>
<path d="M1844.96 684.205C1828.1 725.399 1798.69 760.236 1760.9 783.768C1752.86 788.978 1744.04 792.888 1734.78 795.354C1725.68 797.464 1716.18 797.099 1707.26 794.298C1698.9 791.852 1690.63 788.383 1681.82 788.012C1677.31 787.89 1672.82 788.722 1668.65 790.455C1664.48 792.188 1660.73 794.782 1657.63 798.068C1649.7 806.054 1645.12 816.411 1640.99 826.695C1636.41 838.114 1631.82 850.047 1622.49 858.504C1621.35 859.529 1623.01 861.224 1624.14 860.201C1640.39 845.487 1642.18 821.879 1654.95 804.809C1660.91 796.843 1669.3 790.625 1679.57 790.362C1688.54 790.132 1697.08 793.703 1705.52 796.252C1714.18 799.112 1723.4 799.811 1732.38 798.286C1741.74 796.3 1750.7 792.736 1758.86 787.748C1777.41 776.809 1794.13 763.022 1808.41 746.891C1824.8 728.571 1837.93 707.583 1847.24 684.835C1847.82 683.427 1845.53 682.806 1844.96 684.205Z" fill="white"/>
<path d="M1773.51 776.907C1778.32 782.709 1785.04 786.614 1792.46 787.922C1799.89 789.231 1807.53 787.859 1814.04 784.052C1815.35 783.277 1814.21 781.2 1812.89 781.976C1806.84 785.532 1799.72 786.81 1792.81 785.577C1785.9 784.344 1779.66 780.682 1775.21 775.252C1774.24 774.074 1772.55 775.735 1773.51 776.907Z" fill="white"/>
<path d="M1711.34 796.096C1712.64 780.746 1719.68 766.449 1731.05 756.057C1732.18 755.029 1730.52 753.333 1729.4 754.361C1717.58 765.197 1710.29 780.089 1708.97 796.066C1708.85 797.589 1711.22 797.61 1711.34 796.096Z" fill="white"/>
<path d="M1821.81 727.579C1819.48 725.722 1817.65 723.315 1816.48 720.575C1815.32 717.836 1814.85 714.849 1815.12 711.883C1815.26 710.362 1812.89 710.342 1812.75 711.853C1812.46 715.131 1812.98 718.429 1814.27 721.459C1815.55 724.489 1817.56 727.158 1820.12 729.234C1820.34 729.449 1820.64 729.572 1820.95 729.576C1821.26 729.58 1821.56 729.465 1821.79 729.255C1822.02 729.035 1822.14 728.735 1822.15 728.421C1822.15 728.107 1822.03 727.805 1821.81 727.579Z" fill="white"/>
<path d="M1692.38 586.584C1692.26 587.531 1692.14 588.478 1692.01 589.434C1690.37 602.157 1687.71 614.725 1684.03 627.016C1683.76 627.97 1683.48 628.934 1683.18 629.879C1674.02 659.396 1659.46 686.955 1640.23 711.157C1632.57 720.78 1624.19 729.807 1615.16 738.159C1602.69 749.693 1588.25 761.207 1580.55 775.757C1579.73 777.266 1579 778.825 1578.38 780.424L1616.82 859.217C1617 859.352 1617.16 859.497 1617.34 859.633L1618.73 862.849C1619.22 862.451 1619.73 862.027 1620.22 861.629C1620.51 861.399 1620.79 861.152 1621.08 860.922C1621.27 860.763 1621.46 860.604 1621.64 860.471C1621.7 860.419 1621.77 860.365 1621.81 860.321C1621.99 860.189 1622.15 860.047 1622.31 859.923C1625.14 857.562 1627.96 855.178 1630.77 852.769C1630.79 852.761 1630.79 852.761 1630.8 852.734C1652.16 834.328 1672.17 813.977 1688.45 791.236C1688.94 790.552 1689.45 789.859 1689.92 789.139C1697.21 778.848 1703.64 767.979 1709.15 756.641C1712.15 750.422 1714.83 744.056 1717.18 737.567C1723.23 720.788 1726.61 703.162 1727.18 685.335C1728.32 649.796 1718.07 614.29 1694.22 588.534C1693.61 587.875 1693.01 587.233 1692.38 586.584Z" fill="#F0F0F0"/>
<path d="M1691.46 587.249C1702.81 630.286 1700.31 675.804 1684.31 717.338C1681.02 726.341 1676.34 734.769 1670.43 742.313C1664.43 749.476 1656.63 754.903 1647.82 758.031C1639.67 761.112 1630.98 763.319 1623.72 768.327C1620.04 770.946 1616.96 774.312 1614.68 778.204C1612.39 782.097 1610.96 786.429 1610.46 790.916C1608.94 802.063 1611.52 813.091 1614.42 823.788C1617.63 835.665 1621.16 847.951 1618.8 860.325C1618.51 861.824 1620.86 862.18 1621.14 860.683C1625.25 839.155 1612.46 819.23 1612.38 797.913C1612.34 787.966 1615.3 777.947 1623.34 771.558C1630.37 765.972 1639.33 763.687 1647.61 760.639C1656.24 757.714 1664.03 752.721 1670.28 746.094C1676.56 738.876 1681.56 730.642 1685.07 721.745C1693.3 701.843 1698.35 680.77 1700.03 659.3C1702.08 634.807 1699.93 610.144 1693.67 586.376C1693.28 584.905 1691.08 585.787 1691.46 587.249Z" fill="white"/>
<path d="M1690.25 704.268C1697.58 706.005 1705.3 705.08 1712.01 701.657C1718.73 698.234 1724.01 692.535 1726.91 685.58C1727.49 684.171 1725.33 683.2 1724.74 684.611C1722.05 691.093 1717.13 696.401 1710.87 699.576C1704.61 702.75 1697.43 703.584 1690.61 701.925C1689.12 701.566 1688.77 703.911 1690.25 704.268Z" fill="white"/>
<path d="M1652.16 757.013C1643.95 743.974 1640.96 728.322 1643.79 713.178C1644.07 711.678 1641.73 711.321 1641.45 712.819C1638.54 728.584 1641.68 744.866 1650.25 758.415C1651.07 759.706 1652.97 758.296 1652.16 757.013Z" fill="white"/>
<path d="M1699.11 635.81C1696.13 635.729 1693.22 634.91 1690.63 633.426C1688.05 631.942 1685.88 629.84 1684.31 627.308C1683.51 626.007 1681.6 627.419 1682.4 628.711C1684.14 631.5 1686.55 633.818 1689.4 635.464C1692.25 637.11 1695.46 638.034 1698.75 638.153C1699.06 638.19 1699.37 638.108 1699.62 637.924C1699.87 637.74 1700.04 637.467 1700.1 637.161C1700.14 636.851 1700.06 636.535 1699.88 636.282C1699.69 636.029 1699.42 635.859 1699.11 635.81Z" fill="white"/>
<path d="M488.547 560.799C486.842 559.773 485.383 558.386 484.272 556.736C483.161 555.085 482.426 553.211 482.118 551.246C481.81 549.28 481.937 547.271 482.49 545.36C483.043 543.449 484.008 541.682 485.318 540.185L461.348 498.183L486.431 499.803L505.347 539.44C507.718 541.806 509.139 544.96 509.34 548.303C509.54 551.647 508.507 554.947 506.437 557.58C504.366 560.213 501.401 561.995 498.103 562.588C494.806 563.181 491.406 562.545 488.547 560.799Z" fill="#FFB6B6"/>
<path d="M304.025 847.13H320.621L328.516 783.138L304.023 783.14L304.025 847.13Z" fill="#FFB6B6"/>
<path d="M299.795 841.714L332.475 841.713C337.999 841.713 343.297 843.907 347.203 847.812C351.109 851.716 353.303 857.012 353.303 862.534V863.21L299.796 863.212L299.795 841.714Z" fill="#2F2E41"/>
<path d="M417.729 847.13H434.322L442.217 783.138L417.725 783.14L417.729 847.13Z" fill="#FFB6B6"/>
<path d="M413.494 841.714L446.175 841.713C451.698 841.713 456.997 843.907 460.902 847.812C464.808 851.716 467.002 857.012 467.003 862.534V863.21L413.495 863.212L413.494 841.714Z" fill="#2F2E41"/>
<path d="M460.398 499.988C460.398 499.988 464.962 564.971 455.973 597.699C446.983 630.426 445.378 828.342 445.378 828.342H415.245L389.128 558.936L328.918 829.292L300.217 827.319L315.957 508.741L460.398 499.988Z" fill="#2F2E41"/>
<path d="M328.409 280.932L351.444 264.126L390.044 272.529L400.493 297.35L418.498 306.275C424.418 309.209 429.536 313.537 433.414 318.886C437.292 324.234 439.812 330.445 440.759 336.982L466.481 514.558L315.957 508.741L297.734 299.611C297.543 297.426 297.793 295.226 298.469 293.139C299.144 291.053 300.231 289.124 301.666 287.465C303.1 285.806 304.853 284.452 306.821 283.482C308.788 282.513 310.93 281.948 313.12 281.82L328.409 280.932Z" fill="#3F3D56"/>
<path d="M428.023 320.146L441.926 338.882L502.479 523.522L474.095 534.883L428.646 448.845L428.023 320.146Z" fill="#3F3D56"/>
<path d="M377.628 255.352C396.195 255.352 411.247 240.304 411.247 221.741C411.247 203.178 396.195 188.13 377.628 188.13C359.06 188.13 344.008 203.178 344.008 221.741C344.008 240.304 359.06 255.352 377.628 255.352Z" fill="#FFB9B9"/>
<path opacity="0.1" d="M304.336 360.025L359.199 436.312L420.524 476.292L304.336 360.025Z" fill="black"/>
<path d="M359.81 246.04C357.472 241.372 355.066 236.291 355.96 231.147C356.854 226.004 362.758 221.522 367.315 224.072C369.205 217.241 377.574 214.252 384.619 215.041C391.664 215.829 398.151 219.226 405.088 220.685C412.026 222.143 420.451 220.986 424.2 214.972L415.229 214.816L424.571 203.984L413.742 203.174C417.493 199.127 416.496 192.251 412.865 188.096C409.234 183.941 403.723 181.975 398.346 180.732C387.613 178.258 376.486 178.003 365.65 179.981C360.541 180.768 355.618 182.481 351.124 185.034C346.891 187.615 343.394 191.241 340.969 195.563C338.351 200.44 336.937 205.87 336.842 211.403C336.683 218.815 338.386 226.148 341.797 232.731C345.207 239.313 350.216 244.935 356.364 249.08" fill="#2F2E41"/>
<path d="M1611.58 864.075H568.24C557.495 864.063 547.194 859.791 539.597 852.195C531.999 844.6 527.725 834.302 527.713 823.56V40.5153C527.725 29.7736 531.999 19.4753 539.597 11.8799C547.194 4.28444 557.495 0.0120593 568.24 0H1611.58C1622.32 0.01225 1632.62 4.28473 1640.22 11.8802C1647.82 19.4756 1652.09 29.7737 1652.1 40.5153V823.56C1652.09 834.302 1647.82 844.6 1640.22 852.195C1632.62 859.791 1622.32 864.063 1611.58 864.075Z" fill="#E4E4E4"/>
<path d="M1348.99 359.531H1187.93C1179.97 359.531 1172.34 356.37 1166.71 350.743C1161.09 345.117 1157.92 337.485 1157.92 329.528C1157.92 321.571 1161.09 313.94 1166.71 308.313C1172.34 302.687 1179.97 299.526 1187.93 299.526H1348.99C1356.95 299.526 1364.58 302.687 1370.21 308.313C1375.84 313.94 1379 321.571 1379 329.528C1379 337.485 1375.84 345.117 1370.21 350.743C1364.58 356.37 1356.95 359.531 1348.99 359.531Z" fill="white"/>
<path d="M1207.94 441.538H1169.93C1167.01 441.538 1164.21 440.379 1162.15 438.316C1160.08 436.253 1158.92 433.455 1158.92 430.537C1158.92 427.62 1160.08 424.821 1162.15 422.758C1164.21 420.695 1167.01 419.536 1169.93 419.536H1207.94C1210.86 419.536 1213.66 420.695 1215.72 422.758C1217.79 424.821 1218.94 427.62 1218.94 430.537C1218.94 433.455 1217.79 436.253 1215.72 438.316C1213.66 440.379 1210.86 441.538 1207.94 441.538Z" fill="white"/>
<path d="M1366 441.538H1327.98C1325.06 441.538 1322.27 440.379 1320.2 438.316C1318.14 436.253 1316.98 433.455 1316.98 430.537C1316.98 427.62 1318.14 424.821 1320.2 422.758C1322.27 420.695 1325.06 419.536 1327.98 419.536H1366C1368.91 419.536 1371.71 420.695 1373.78 422.758C1375.84 424.821 1377 427.62 1377 430.537C1377 433.455 1375.84 436.253 1373.78 438.316C1371.71 440.379 1368.91 441.538 1366 441.538Z" fill="white"/>
<path d="M1285.97 441.538H1247.95C1245.04 441.538 1242.24 440.379 1240.17 438.316C1238.11 436.253 1236.95 433.455 1236.95 430.537C1236.95 427.62 1238.11 424.821 1240.17 422.758C1242.24 420.695 1245.04 419.536 1247.95 419.536H1285.97C1288.89 419.536 1291.69 420.695 1293.75 422.758C1295.81 424.821 1296.97 427.62 1296.97 430.537C1296.97 433.455 1295.81 436.253 1293.75 438.316C1291.69 440.379 1288.89 441.538 1285.97 441.538Z" fill="white"/>
<path d="M1207.94 483.542H1169.93C1167.01 483.542 1164.21 482.383 1162.15 480.32C1160.08 478.257 1158.92 475.459 1158.92 472.541C1158.92 469.623 1160.08 466.825 1162.15 464.762C1164.21 462.699 1167.01 461.54 1169.93 461.54H1207.94C1210.86 461.54 1213.66 462.699 1215.72 464.762C1217.79 466.825 1218.94 469.623 1218.94 472.541C1218.94 475.459 1217.79 478.257 1215.72 480.32C1213.66 482.383 1210.86 483.542 1207.94 483.542Z" fill="white"/>
<path d="M1366 483.542H1327.98C1325.06 483.542 1322.27 482.383 1320.2 480.32C1318.14 478.257 1316.98 475.459 1316.98 472.541C1316.98 469.623 1318.14 466.825 1320.2 464.762C1322.27 462.699 1325.06 461.54 1327.98 461.54H1366C1368.91 461.54 1371.71 462.699 1373.78 464.762C1375.84 466.825 1377 469.623 1377 472.541C1377 475.459 1375.84 478.257 1373.78 480.32C1371.71 482.383 1368.91 483.542 1366 483.542Z" fill="white"/>
<path d="M1285.97 483.542H1247.95C1245.04 483.542 1242.24 482.383 1240.17 480.32C1238.11 478.257 1236.95 475.459 1236.95 472.541C1236.95 469.623 1238.11 466.825 1240.17 464.762C1242.24 462.699 1245.04 461.54 1247.95 461.54H1285.97C1288.89 461.54 1291.69 462.699 1293.75 464.762C1295.81 466.825 1296.97 469.623 1296.97 472.541C1296.97 475.459 1295.81 478.257 1293.75 480.32C1291.69 482.383 1288.89 483.542 1285.97 483.542Z" fill="white"/>
<path d="M1207.94 525.545H1169.93C1167.01 525.545 1164.21 524.386 1162.15 522.323C1160.08 520.26 1158.92 517.462 1158.92 514.545C1158.92 511.627 1160.08 508.829 1162.15 506.766C1164.21 504.703 1167.01 503.544 1169.93 503.544H1207.94C1210.86 503.544 1213.66 504.703 1215.72 506.766C1217.79 508.829 1218.94 511.627 1218.94 514.545C1218.94 517.462 1217.79 520.26 1215.72 522.323C1213.66 524.386 1210.86 525.545 1207.94 525.545Z" fill="white"/>
<path d="M1366 525.545H1327.98C1325.06 525.545 1322.27 524.386 1320.2 522.323C1318.14 520.26 1316.98 517.462 1316.98 514.545C1316.98 511.627 1318.14 508.829 1320.2 506.766C1322.27 504.703 1325.06 503.544 1327.98 503.544H1366C1368.91 503.544 1371.71 504.703 1373.78 506.766C1375.84 508.829 1377 511.627 1377 514.545C1377 517.462 1375.84 520.26 1373.78 522.323C1371.71 524.386 1368.91 525.545 1366 525.545Z" fill="white"/>
<path d="M1285.97 525.545H1247.95C1245.04 525.545 1242.24 524.386 1240.17 522.323C1238.11 520.26 1236.95 517.462 1236.95 514.545C1236.95 511.627 1238.11 508.829 1240.17 506.766C1242.24 504.703 1245.04 503.544 1247.95 503.544H1285.97C1288.89 503.544 1291.69 504.703 1293.75 506.766C1295.81 508.829 1296.97 511.627 1296.97 514.545C1296.97 517.462 1295.81 520.26 1293.75 522.323C1291.69 524.386 1288.89 525.545 1285.97 525.545Z" fill="white"/>
<path d="M1207.94 567.549H1169.93C1167.01 567.549 1164.21 566.39 1162.15 564.327C1160.08 562.264 1158.92 559.466 1158.92 556.548C1158.92 553.631 1160.08 550.832 1162.15 548.769C1164.21 546.706 1167.01 545.547 1169.93 545.547H1207.94C1210.86 545.547 1213.66 546.706 1215.72 548.769C1217.79 550.832 1218.94 553.631 1218.94 556.548C1218.94 559.466 1217.79 562.264 1215.72 564.327C1213.66 566.39 1210.86 567.549 1207.94 567.549Z" fill="white"/>
<path d="M1366 567.549H1327.98C1325.06 567.549 1322.27 566.39 1320.2 564.327C1318.14 562.264 1316.98 559.466 1316.98 556.548C1316.98 553.631 1318.14 550.832 1320.2 548.769C1322.27 546.706 1325.06 545.547 1327.98 545.547H1366C1368.91 545.547 1371.71 546.706 1373.78 548.769C1375.84 550.832 1377 553.631 1377 556.548C1377 559.466 1375.84 562.264 1373.78 564.327C1371.71 566.39 1368.91 567.549 1366 567.549Z" fill="white"/>
<path d="M1285.97 567.549H1247.95C1245.04 567.549 1242.24 566.39 1240.17 564.327C1238.11 562.264 1236.95 559.466 1236.95 556.548C1236.95 553.631 1238.11 550.832 1240.17 548.769C1242.24 546.706 1245.04 545.547 1247.95 545.547H1285.97C1288.89 545.547 1291.69 546.706 1293.75 548.769C1295.81 550.832 1296.97 553.631 1296.97 556.548C1296.97 559.466 1295.81 562.264 1293.75 564.327C1291.69 566.39 1288.89 567.549 1285.97 567.549Z" fill="white"/>
<path d="M950.853 523.545C1007.21 523.545 1052.89 477.874 1052.89 421.536C1052.89 365.199 1007.21 319.528 950.853 319.528C894.5 319.528 848.817 365.199 848.817 421.536C848.817 477.874 894.5 523.545 950.853 523.545Z" fill="#CACACA"/>
<path d="M950.852 546.547C942.896 546.538 935.268 543.374 929.642 537.75C924.016 532.125 920.851 524.499 920.842 516.545V326.528C920.839 322.586 921.612 318.682 923.119 315.039C924.626 311.396 926.836 308.086 929.623 305.297C932.41 302.509 935.719 300.297 939.362 298.787C943.005 297.278 946.909 296.501 950.852 296.501C954.795 296.501 958.699 297.278 962.342 298.787C965.985 300.297 969.294 302.509 972.081 305.297C974.868 308.086 977.078 311.396 978.585 315.039C980.092 318.682 980.865 322.586 980.862 326.528V516.545C980.853 524.499 977.689 532.125 972.063 537.75C966.437 543.374 958.809 546.538 950.852 546.547Z" fill="white"/>
<path d="M1217.42 346.648H1189.41C1188.35 346.648 1187.33 346.226 1186.58 345.476C1185.83 344.726 1185.41 343.709 1185.41 342.648C1185.41 341.587 1185.83 340.569 1186.58 339.819C1187.33 339.069 1188.35 338.647 1189.41 338.647H1217.42C1218.48 338.647 1219.5 339.069 1220.25 339.819C1221 340.569 1221.42 341.587 1221.42 342.648C1221.42 343.709 1221 344.726 1220.25 345.476C1219.5 346.226 1218.48 346.648 1217.42 346.648Z" fill="#E4E4E4"/>
<path d="M1261.43 347.648H1233.42C1232.36 347.648 1231.34 347.227 1230.59 346.476C1229.84 345.726 1229.42 344.709 1229.42 343.648C1229.42 342.587 1229.84 341.569 1230.59 340.819C1231.34 340.069 1232.36 339.647 1233.42 339.647H1261.43C1262.49 339.647 1263.51 340.069 1264.26 340.819C1265.01 341.569 1265.43 342.587 1265.43 343.648C1265.43 344.709 1265.01 345.726 1264.26 346.476C1263.51 347.227 1262.49 347.648 1261.43 347.648Z" fill="#E4E4E4"/>
<path d="M1305.45 348.648H1277.44C1276.38 348.648 1275.36 348.227 1274.61 347.476C1273.86 346.726 1273.44 345.709 1273.44 344.648C1273.44 343.587 1273.86 342.569 1274.61 341.819C1275.36 341.069 1276.38 340.647 1277.44 340.647H1305.45C1306.51 340.647 1307.53 341.069 1308.28 341.819C1309.03 342.569 1309.45 343.587 1309.45 344.648C1309.45 345.709 1309.03 346.726 1308.28 347.476C1307.53 348.227 1306.51 348.648 1305.45 348.648Z" fill="#E4E4E4"/>
<path d="M1349.46 349.648H1321.45C1320.39 349.648 1319.37 349.227 1318.62 348.476C1317.87 347.726 1317.45 346.709 1317.45 345.648C1317.45 344.587 1317.87 343.569 1318.62 342.819C1319.37 342.069 1320.39 341.647 1321.45 341.647H1349.46C1350.52 341.647 1351.54 342.069 1352.29 342.819C1353.04 343.569 1353.46 344.587 1353.46 345.648C1353.46 346.709 1353.04 347.726 1352.29 348.476C1351.54 349.227 1350.52 349.648 1349.46 349.648Z" fill="#E4E4E4"/>
<path d="M660.753 740.562C660.751 745.515 661.733 750.419 663.643 754.99C665.553 759.56 668.351 763.705 671.877 767.185H655.35C650.474 767.185 645.645 766.224 641.14 764.359C636.635 762.493 632.542 759.759 629.094 756.312C625.646 752.865 622.911 748.773 621.045 744.269C619.179 739.765 618.219 734.938 618.219 730.063V128.247C618.219 123.372 619.179 118.545 621.045 114.041C622.911 109.538 625.646 105.445 629.094 101.998C632.542 98.5513 636.635 95.8169 641.14 93.9514C645.645 92.0859 650.474 91.1257 655.35 91.1257H679.4C673.728 94.4237 669.021 99.1519 665.749 104.838C662.476 110.524 660.754 116.969 660.753 123.529L660.753 740.562Z" fill="#CACACA"/>
<path d="M1880.29 868H3.05889C2.42829 867.998 1.82416 867.746 1.3789 867.3C0.933645 866.854 0.683594 866.249 0.683594 865.618C0.683594 864.988 0.933645 864.383 1.3789 863.937C1.82416 863.49 2.42829 863.239 3.05889 863.237H1880.29C1880.93 863.237 1881.53 863.488 1881.98 863.934C1882.43 864.381 1882.68 864.987 1882.68 865.618C1882.68 866.25 1882.43 866.856 1881.98 867.302C1881.53 867.749 1880.93 868 1880.29 868Z" fill="#CACACA"/>
<path d="M656.751 266.981C644.107 263.441 631.416 260.16 618.678 257.14C575.119 246.745 530.96 239.05 486.453 234.098C478.909 232.112 470.885 233.186 464.129 237.085C457.373 240.985 452.431 247.395 450.38 254.92L428.152 336.927C426.112 344.486 427.154 352.546 431.052 359.337C434.949 366.129 441.382 371.096 448.94 373.15L449.24 373.21C478.65 376.551 508.34 381.191 537.87 387.111C540.511 387.632 543.132 388.172 545.773 388.732C555.236 390.692 564.673 392.785 574.083 395.012C578.204 395.972 582.305 396.972 586.427 397.992C597.51 400.753 608.601 403.693 619.699 406.813C632.043 410.294 644.394 414.007 656.751 417.954C658.092 418.354 659.432 418.774 660.752 419.214V268.121C659.432 267.721 658.092 267.341 656.751 266.981Z" fill="white"/>
<path d="M656.751 266.981C644.107 263.441 631.416 260.16 618.678 257.14C575.119 246.745 530.96 239.05 486.453 234.098C478.909 232.112 470.885 233.186 464.129 237.085C457.373 240.985 452.431 247.395 450.38 254.92L428.152 336.927C426.112 344.486 427.154 352.546 431.052 359.337C434.949 366.129 441.382 371.096 448.94 373.15L449.24 373.21C478.65 376.551 508.34 381.191 537.87 387.111C540.511 387.632 543.132 388.172 545.773 388.732C555.236 390.692 564.673 392.785 574.083 395.012C578.204 395.972 582.305 396.972 586.427 397.992C597.51 400.753 608.601 403.693 619.699 406.813C632.043 410.294 644.394 414.007 656.751 417.954C658.092 418.354 659.432 418.774 660.752 419.214V414.994C659.412 414.574 658.071 414.154 656.751 413.734C645.387 410.113 634.037 406.706 622.7 403.513C618.458 402.293 614.217 401.113 609.975 399.973C602.333 397.912 594.71 395.939 587.108 394.052C583.066 393.032 579.031 392.052 575.003 391.112C574.703 391.032 574.383 390.972 574.082 390.892C567.22 389.272 560.344 387.725 553.455 386.251C550.815 385.691 548.174 385.131 545.532 384.591C513.682 377.991 481.59 372.85 449.839 369.25C443.345 367.442 437.828 363.142 434.49 357.287C431.151 351.432 430.261 344.495 432.014 337.987L454.241 255.96C456.019 249.433 460.315 243.879 466.185 240.515C472.055 237.151 479.02 236.253 485.552 238.018L485.852 238.058C529.795 242.936 573.398 250.498 616.417 260.7C616.857 260.82 617.297 260.92 617.737 261.02C630.783 264.141 643.787 267.514 656.751 271.141C658.071 271.501 659.412 271.881 660.752 272.281V268.121C659.432 267.721 658.092 267.341 656.751 266.981Z" fill="#7C3AED"/>
<path d="M660.752 270.201V417.094C659.412 416.654 658.092 416.234 656.751 415.814C644.927 412.034 633.063 408.473 621.159 405.133C609.734 401.893 598.271 398.846 586.768 395.992C582.686 394.992 578.624 394.012 574.543 393.052C574.382 392.332 574.222 391.612 574.082 390.892C573.342 387.452 572.763 383.971 572.322 380.471C572.122 379.131 571.982 377.791 571.841 376.431C569.736 355.002 572.67 333.378 580.41 313.284C588.149 293.19 600.48 275.183 616.417 260.701C616.998 260.141 617.597 259.6 618.198 259.08C631.123 262.161 643.973 265.494 656.751 269.081C658.092 269.421 659.432 269.801 660.752 270.201Z" fill="#7C3AED"/>
<path d="M527.887 330.347L472.248 323.786C470.29 323.555 468.307 323.711 466.41 324.247C464.513 324.782 462.74 325.686 461.193 326.906C459.645 328.126 458.353 329.639 457.39 331.359C456.428 333.078 455.813 334.97 455.582 336.927C455.351 338.884 455.508 340.867 456.043 342.764C456.579 344.66 457.482 346.432 458.703 347.98C459.924 349.527 461.437 350.818 463.157 351.781C464.877 352.743 466.77 353.357 468.727 353.589L524.365 360.149C528.313 360.606 532.281 359.478 535.399 357.014C538.516 354.55 540.529 350.95 540.995 347.004C541.461 343.058 540.343 339.089 537.886 335.966C535.428 332.843 531.833 330.822 527.887 330.347ZM537.05 346.548C536.702 349.443 535.219 352.081 532.927 353.885C530.636 355.689 527.722 356.51 524.825 356.169L469.186 349.608C466.297 349.257 463.665 347.774 461.866 345.487C460.068 343.199 459.25 340.291 459.591 337.402C459.933 334.512 461.406 331.875 463.688 330.069C465.97 328.263 468.875 327.435 471.767 327.766L527.406 334.327C530.302 334.677 532.942 336.159 534.749 338.449C536.556 340.739 537.383 343.65 537.05 346.548Z" fill="#7C3AED"/>
<path d="M660.752 304.604V374.27C659.467 375.041 658.13 375.723 656.751 376.31C649.57 379.516 641.608 380.553 633.845 379.295C626.082 378.037 618.856 374.539 613.056 369.23C612.496 368.73 611.935 368.19 611.395 367.63C610.855 367.09 610.335 366.51 609.835 365.93C603.795 358.994 600.305 350.206 599.94 341.017C599.575 331.829 602.359 322.792 607.83 315.4C613.301 308.008 621.132 302.705 630.028 300.367C638.924 298.029 648.351 298.797 656.751 302.544C658.12 303.158 659.456 303.846 660.752 304.604Z" fill="white"/>
<path d="M656.751 355.029C641.007 358.309 625.368 361.943 609.836 365.93C604.034 367.41 598.252 368.943 592.49 370.53C585.608 372.43 578.725 374.397 571.842 376.431C563.06 379.031 554.29 381.751 545.533 384.591C542.992 385.431 540.432 386.271 537.87 387.112C513.522 395.232 489.334 404.233 465.546 414.054C457.976 415.945 451.459 420.75 447.416 427.422C443.373 434.094 442.13 442.093 443.958 449.677L464.026 532.244C465.883 539.849 470.681 546.407 477.369 550.479C484.056 554.551 492.086 555.805 499.697 553.966L499.978 553.866C539.097 537.824 579.135 524.119 619.879 512.823C632.044 509.442 644.334 506.255 656.751 503.262C658.093 502.942 659.412 502.622 660.753 502.322V354.209C659.412 354.449 658.093 354.729 656.751 355.029Z" fill="white"/>
<path d="M656.751 355.029C641.007 358.309 625.368 361.943 609.836 365.93C604.034 367.41 598.252 368.943 592.49 370.53C585.608 372.43 578.725 374.397 571.842 376.431C563.06 379.031 554.29 381.751 545.533 384.591C542.992 385.431 540.432 386.271 537.87 387.112C513.522 395.232 489.334 404.233 465.546 414.054C457.976 415.945 451.459 420.75 447.416 427.422C443.373 434.094 442.13 442.093 443.958 449.677L464.026 532.244C465.883 539.849 470.681 546.407 477.369 550.479C484.056 554.551 492.086 555.805 499.697 553.966L499.978 553.866C539.097 537.824 579.135 524.119 619.879 512.823C632.044 509.442 644.334 506.255 656.751 503.262C658.093 502.942 659.412 502.622 660.753 502.322V498.201C659.412 498.521 658.093 498.841 656.751 499.161C655.751 499.401 654.731 499.641 653.731 499.881C641.967 502.742 630.329 505.769 618.818 508.962C618.518 509.042 618.199 509.142 617.898 509.222C577.359 520.493 537.523 534.152 498.597 550.126C492.033 551.664 485.127 550.55 479.38 547.025C473.633 543.501 469.51 537.851 467.907 531.304L447.86 448.737C446.269 442.162 447.351 435.225 450.869 429.447C454.387 423.669 460.054 419.521 466.626 417.914L466.926 417.814C492.835 407.093 519.204 397.372 545.774 388.732C548.334 387.892 550.895 387.072 553.456 386.252C559.738 384.271 566.027 382.345 572.323 380.471C578.965 378.491 585.6 376.584 592.229 374.751C592.67 374.631 593.11 374.511 593.55 374.39C600.033 372.61 606.535 370.89 613.057 369.23C627.522 365.55 642.086 362.169 656.751 359.089C658.072 358.809 659.412 358.529 660.753 358.269V354.209C659.412 354.449 658.093 354.729 656.751 355.029Z" fill="#7C3AED"/>
<path d="M660.751 356.229V500.261C659.431 500.561 658.091 500.861 656.75 501.181C644.226 504.222 631.755 507.462 619.337 510.902C618.837 510.342 618.357 509.782 617.896 509.222C604.933 494.051 595.407 476.254 589.975 457.053C584.542 437.853 583.332 417.705 586.425 397.992C586.526 397.332 586.646 396.652 586.766 395.992C586.866 395.352 586.986 394.692 587.106 394.052C588.342 387.502 590.053 381.051 592.227 374.75C592.488 373.99 592.748 373.23 593.028 372.47C599.13 370.79 605.252 369.177 611.394 367.63C626.42 363.749 641.538 360.222 656.75 357.049C658.07 356.749 659.411 356.489 660.751 356.229Z" fill="#7C3AED"/>
<path d="M567.78 486.7C566.28 483.016 563.38 480.078 559.715 478.529C556.051 476.981 551.922 476.948 548.233 478.439L496.315 499.481C492.633 500.982 489.697 503.881 488.152 507.543C486.607 511.206 486.579 515.331 488.074 519.014C489.569 522.698 492.464 525.637 496.125 527.188C499.786 528.738 503.913 528.773 507.599 527.284L559.518 506.242C563.199 504.739 566.136 501.839 567.684 498.176C569.232 494.514 569.267 490.388 567.78 486.7ZM558.017 502.522L506.099 523.583C503.393 524.677 500.365 524.652 497.678 523.515C494.991 522.377 492.865 520.22 491.768 517.517C490.67 514.814 490.691 511.786 491.825 509.098C492.959 506.411 495.113 504.282 497.816 503.182L549.734 482.14C552.437 481.042 555.466 481.062 558.155 482.197C560.843 483.332 562.971 485.487 564.069 488.19C565.167 490.893 565.147 493.921 564.012 496.609C562.877 499.297 560.72 501.423 558.017 502.522Z" fill="#7C3AED"/>
<path d="M660.752 393.012V471.439C659.433 471.775 658.097 472.042 656.75 472.239C648.718 473.364 640.533 472.048 633.259 468.462C625.985 464.875 619.958 459.184 615.962 452.127C611.966 445.071 610.185 436.976 610.852 428.895C611.518 420.814 614.601 413.12 619.699 406.813C620.159 406.233 620.638 405.673 621.159 405.133C621.639 404.573 622.159 404.033 622.7 403.513C627.123 399.139 632.498 395.845 638.404 393.888C644.311 391.931 650.589 391.364 656.75 392.232C658.098 392.413 659.435 392.673 660.752 393.012Z" fill="white"/>
<path d="M656.75 256.56V456.198C658.091 455.758 659.432 455.337 660.751 454.937V258.38C659.411 257.76 658.091 257.16 656.75 256.56ZM656.75 256.56V456.198C658.091 455.758 659.432 455.337 660.751 454.937V258.38C659.411 257.76 658.091 257.16 656.75 256.56ZM656.75 256.56V456.198C658.091 455.758 659.432 455.337 660.751 454.937V258.38C659.411 257.76 658.091 257.16 656.75 256.56ZM656.75 271.141V501.181C658.091 500.861 659.432 500.561 660.751 500.261V272.281C659.411 271.881 658.071 271.501 656.75 271.141ZM656.75 271.141V501.181C658.091 500.861 659.432 500.561 660.751 500.261V272.281C659.411 271.881 658.071 271.501 656.75 271.141ZM656.75 271.141V501.181C658.091 500.861 659.432 500.561 660.751 500.261V272.281C659.411 271.881 658.071 271.501 656.75 271.141ZM656.75 271.141V501.181C658.091 500.861 659.432 500.561 660.751 500.261V272.281C659.411 271.881 658.071 271.501 656.75 271.141ZM656.75 271.141V503.262C658.091 502.942 659.411 502.622 660.751 502.322V272.281C659.411 271.881 658.071 271.501 656.75 271.141ZM1529.55 82.0049H698.285C687.275 82.0232 676.721 86.4038 668.936 94.187C661.15 101.97 656.768 112.521 656.75 123.529V740.562C656.769 751.568 661.151 762.116 668.937 769.896C676.723 777.676 687.277 782.053 698.285 782.066H1529.55C1540.56 782.053 1551.11 777.676 1558.89 769.895C1566.67 762.115 1571.05 751.566 1571.07 740.562V123.529C1571.06 112.522 1566.68 101.969 1558.9 94.1841C1551.11 86.3995 1540.56 82.0194 1529.55 82.0049ZM1567.06 740.562C1567.05 750.506 1563.1 760.039 1556.07 767.07C1549.03 774.101 1539.5 778.055 1529.55 778.066H698.285C688.337 778.056 678.798 774.103 671.762 767.072C664.726 760.042 660.766 750.508 660.751 740.562V123.529C660.766 113.581 664.726 104.046 671.761 97.012C678.797 89.9782 688.335 86.0202 698.285 86.0053H1529.55C1539.5 86.0167 1549.04 89.9744 1556.07 97.0094C1563.1 104.045 1567.06 113.582 1567.06 123.529V740.562ZM656.75 271.141V499.161C658.091 498.841 659.411 498.521 660.751 498.201V272.281C659.411 271.881 658.071 271.501 656.75 271.141ZM656.75 271.141V501.181C658.091 500.861 659.432 500.561 660.751 500.261V272.281C659.411 271.881 658.071 271.501 656.75 271.141ZM656.75 271.141V501.181C658.091 500.861 659.432 500.561 660.751 500.261V272.281C659.411 271.881 658.071 271.501 656.75 271.141ZM656.75 271.141V501.181C658.091 500.861 659.432 500.561 660.751 500.261V272.281C659.411 271.881 658.071 271.501 656.75 271.141ZM656.75 256.56V456.198C658.091 455.758 659.432 455.337 660.751 454.937V258.38C659.411 257.76 658.091 257.16 656.75 256.56ZM656.75 256.56V456.198C658.091 455.758 659.432 455.337 660.751 454.937V258.38C659.411 257.76 658.091 257.16 656.75 256.56Z" fill="#2F2E41"/>
<path d="M478.541 467.789C477.757 465.96 476.581 464.326 475.097 463.001C473.613 461.676 471.856 460.693 469.95 460.12C468.045 459.547 466.037 459.399 464.068 459.686C462.099 459.973 460.216 460.689 458.554 461.782L420.199 432.319L418.387 457.382L455.087 481.518C457.109 484.189 460.04 486.025 463.326 486.68C466.611 487.334 470.023 486.761 472.914 485.068C475.805 483.376 477.975 480.682 479.012 477.498C480.049 474.313 479.882 470.858 478.541 467.789Z" fill="#FFB6B6"/>
<path d="M323.985 289.978L311.364 284.015C311.364 284.015 291.032 289.733 300.91 316.612L360.689 427.949L433.672 470.667L456.424 450.511L383.389 392.737L323.985 289.978Z" fill="#3F3D56"/>
</g>
<defs>
<clipPath id="clip0_649_207">
<rect width="1882" height="868" fill="white" transform="translate(0.675781)"/>
</clipPath>
</defs>
</svg>
