<svg width="1441" height="1000" viewBox="0 0 1441 1000" fill="none" xmlns="http://www.w3.org/2000/svg">
<g clip-path="url(#clip0_638_207)">
<circle cx="242" cy="669" r="161" stroke="#E6E6E6" stroke-width="50"/>
<rect x="833" y="778" width="544" height="154" rx="25" fill="#CAE1F7" stroke="#1092F0" stroke-width="10" stroke-dasharray="20 20"/>
<path d="M1323.95 0.653564H171.492V738.86H1323.95V0.653564Z" fill="#E6E6E6"/>
<path d="M1290.99 93.2429H204.446V695.188H1290.99V93.2429Z" fill="white"/>
<path d="M1323.45 0H171V48.9687H1323.45V0Z" fill="#7C3AED"/>
<path d="M207.383 34.1114C212.395 34.1114 216.457 30.048 216.457 25.0354C216.457 20.0229 212.395 15.9595 207.383 15.9595C202.371 15.9595 198.309 20.0229 198.309 25.0354C198.309 30.048 202.371 34.1114 207.383 34.1114Z" fill="white"/>
<path d="M241.827 34.1114C246.839 34.1114 250.902 30.048 250.902 25.0354C250.902 20.0229 246.839 15.9595 241.827 15.9595C236.816 15.9595 232.753 20.0229 232.753 25.0354C232.753 30.048 236.816 34.1114 241.827 34.1114Z" fill="white"/>
<path d="M276.272 34.1114C281.283 34.1114 285.346 30.048 285.346 25.0354C285.346 20.0229 281.283 15.9595 276.272 15.9595C271.26 15.9595 267.197 20.0229 267.197 25.0354C267.197 30.048 271.26 34.1114 276.272 34.1114Z" fill="white"/>
<path d="M582.365 155.7H303.174V632.731H582.365V155.7Z" fill="#E6E6E6"/>
<path d="M863.218 155.7H630.559V287.008H863.218V155.7Z" fill="#7C3AED"/>
<path d="M863.218 323.575H630.559V464.856H863.218V323.575Z" fill="#E6E6E6"/>
<path d="M863.218 501.423H630.559V632.731H863.218V501.423Z" fill="#E6E6E6"/>
<path d="M1192.27 155.7H913.074V363.587H1192.27V155.7Z" fill="#E6E6E6"/>
<path d="M1192.27 424.843H913.074V632.731H1192.27V424.843Z" fill="#E6E6E6"/>
<path d="M1084.71 378.522V333.767C1084.71 317.861 1091.03 302.607 1102.27 291.36C1113.52 280.113 1128.77 273.795 1144.67 273.795C1160.58 273.795 1175.83 280.113 1187.07 291.36C1198.32 302.607 1204.63 317.861 1204.63 333.767V378.522C1204.63 380.658 1203.78 382.705 1202.27 384.216C1200.76 385.726 1198.72 386.575 1196.58 386.578H1092.77C1090.63 386.575 1088.58 385.726 1087.07 384.216C1085.56 382.705 1084.71 380.658 1084.71 378.522Z" fill="#2F2E41"/>
<path d="M1233.34 960.959L1212.19 966.813L1179.55 888.012L1210.76 879.372L1233.34 960.959Z" fill="#FFB8B8"/>
<path d="M1195.41 964.952L1236.2 953.662L1243.3 979.347L1176.84 997.745C1175.9 994.372 1175.64 990.848 1176.07 987.375C1176.5 983.901 1177.61 980.546 1179.33 977.501C1181.06 974.456 1183.36 971.78 1186.12 969.627C1188.88 967.474 1192.04 965.885 1195.41 964.952Z" fill="#2F2E41"/>
<path d="M1012.84 977.231H990.901L980.46 892.575H1012.85L1012.84 977.231Z" fill="#FFB8B8"/>
<path d="M975.226 970.959H1017.55V997.609H948.58C948.58 994.11 949.269 990.644 950.608 987.411C951.947 984.177 953.91 981.239 956.385 978.765C958.859 976.29 961.796 974.327 965.029 972.987C968.262 971.648 971.727 970.959 975.226 970.959Z" fill="#2F2E41"/>
<path d="M986.384 504.119C987.95 506.234 989.961 507.979 992.275 509.233C994.589 510.486 997.149 511.217 999.776 511.373C1002.4 511.53 1005.03 511.109 1007.48 510.139C1009.92 509.169 1012.13 507.675 1013.93 505.762L1072.27 532.003L1066.96 499.185L1012.38 479.298C1008.97 476.476 1004.63 475.005 1000.21 475.164C995.779 475.322 991.564 477.1 988.359 480.16C985.155 483.219 983.184 487.348 982.82 491.764C982.456 496.18 983.724 500.576 986.384 504.119Z" fill="#FFB8B8"/>
<path d="M1107.59 701.469C1089.26 701.469 1070.29 698.738 1054.34 690.617C1045.87 686.391 1038.37 680.463 1032.3 673.204C1026.23 665.945 1021.72 657.511 1019.06 648.43C1010.75 622.115 1021.23 596.263 1031.36 571.263C1037.64 555.771 1043.57 541.139 1045.11 526.716L1045.65 521.595C1048.04 498.595 1050.11 478.732 1061.57 471.281C1067.51 467.42 1075.5 467.199 1085.99 470.607L1184.51 502.618L1180.89 689.677L1180.29 689.877C1179.77 690.051 1145.04 701.469 1107.59 701.469Z" fill="#2F2E41"/>
<path d="M1084.26 412.372C1084.26 412.372 1132.59 398.05 1170.18 403.42C1170.18 403.42 1148.7 521.574 1155.86 560.959C1163.02 600.344 1031.46 576.176 1058.31 538.581L1067.26 493.826C1067.26 493.826 1049.36 475.924 1065.47 454.441L1084.26 412.372Z" fill="#7C3AED"/>
<path d="M1060.49 697.922L1000.93 686.753L1021.73 526.696C1023.12 522.227 1055.34 420.817 1069.97 415.33C1080.59 411.589 1091.45 408.57 1102.48 406.296L1104.6 405.872L1092.66 423.789L1045.11 537.744L1060.49 697.922Z" fill="#2F2E41"/>
<path d="M1029.46 957.616L952.501 944.789L995.688 768.41L1059.95 527.202L1060.59 531.485C1060.64 531.804 1066.64 563.315 1155.72 549.333L1156.5 549.211L1156.72 549.974L1264.39 930.461L1176.7 945.078L1096.72 667.476L1029.46 957.616Z" fill="#2F2E41"/>
<path d="M1136.12 727.875L1136.17 726.521C1136.22 725.018 1141.52 575.477 1139.75 515.335C1137.98 454.989 1157.51 402.729 1157.71 402.208L1157.87 401.789L1158.3 401.665C1183.57 394.443 1205.5 415.996 1205.72 416.214L1206.02 416.522L1198.83 475.914L1229.64 691.888L1136.12 727.875Z" fill="#2F2E41"/>
<path d="M1132.35 385.536C1156.63 385.536 1176.31 365.85 1176.31 341.567C1176.31 317.283 1156.63 297.597 1132.35 297.597C1108.07 297.597 1088.39 317.283 1088.39 341.567C1088.39 365.85 1108.07 385.536 1132.35 385.536Z" fill="#FFB8B8"/>
<path d="M1070.53 337.347C1070.54 324.769 1075.54 312.711 1084.43 303.817C1093.33 294.923 1105.38 289.921 1117.96 289.906H1126.91C1139.48 289.921 1151.54 294.923 1160.43 303.817C1169.32 312.711 1174.33 324.769 1174.34 337.347V338.242H1155.43L1148.98 320.176L1147.69 338.242H1137.91L1134.66 329.127L1134.01 338.242H1070.53V337.347Z" fill="#2F2E41"/>
<path d="M1128.02 391.611C1127.14 390.408 1126.61 388.979 1126.49 387.488C1126.38 385.998 1126.69 384.506 1127.39 383.184C1136.88 365.142 1150.16 331.805 1132.53 311.245L1131.26 309.768H1182.43V386.604L1135.95 394.806C1135.48 394.89 1135 394.932 1134.52 394.932C1133.26 394.932 1132.01 394.631 1130.88 394.054C1129.75 393.476 1128.77 392.639 1128.02 391.611Z" fill="#2F2E41"/>
<path d="M922.011 74.3767C886.205 44.1586 842.39 25.0007 795.897 19.2342C749.404 13.4678 702.237 21.3414 660.137 41.8971C618.036 62.4527 582.817 94.804 558.764 135.014C534.712 175.225 522.863 221.56 524.66 268.383C526.458 315.206 541.823 360.496 568.887 398.744C595.951 436.992 633.547 466.547 677.099 483.814C720.651 501.081 768.283 505.315 814.197 496C860.111 486.686 902.329 464.224 935.713 431.35L1232.15 681.527C1236.66 685.341 1242.51 687.207 1248.39 686.714C1254.28 686.221 1259.73 683.41 1263.54 678.898C1267.35 674.387 1269.22 668.546 1268.73 662.659C1268.23 656.772 1265.42 651.322 1260.91 647.508L1260.88 647.481L964.436 397.303C998.874 347.87 1013.61 287.356 1005.76 227.62C997.916 167.885 968.047 113.234 922.011 74.3767ZM902.9 373.212C879.806 400.586 849.115 420.496 814.707 430.424C780.299 440.352 743.721 439.852 709.597 428.988C675.473 418.124 645.337 397.383 622.999 369.389C600.661 341.394 587.124 307.403 584.101 271.714C581.078 236.025 588.704 200.241 606.015 168.887C623.326 137.533 649.544 112.017 681.354 95.5657C713.164 79.1147 749.138 72.4675 784.725 76.4646C820.312 80.4617 853.915 94.9237 881.284 118.022C899.457 133.358 914.431 152.124 925.353 173.249C936.274 194.374 942.928 217.443 944.935 241.139C946.942 264.836 944.263 288.696 937.051 311.357C929.839 334.018 918.234 355.037 902.9 373.212Z" fill="#3F3D56"/>
<path opacity="0.3" d="M647.752 394.832C613.017 365.515 590.575 324.205 584.883 279.105C579.192 234.005 590.666 188.413 617.027 151.383C613.565 154.87 610.218 158.522 606.987 162.339C591.653 180.515 580.049 201.533 572.836 224.194C565.624 246.855 562.945 270.715 564.952 294.412C566.959 318.109 573.613 341.178 584.535 362.302C595.456 383.427 610.43 402.193 628.603 417.53C646.775 432.866 667.79 444.472 690.448 451.686C713.105 458.9 736.961 461.579 760.654 459.572C784.346 457.564 807.412 450.909 828.533 439.986C849.654 429.063 868.417 414.086 883.751 395.91C886.975 392.088 890.011 388.174 892.86 384.168C860.798 416.388 817.794 435.37 772.387 437.346C726.98 439.321 682.49 424.146 647.752 394.832Z" fill="black"/>
<path d="M1146.47 580.987C1149.02 581.612 1151.68 581.669 1154.26 581.154C1156.84 580.639 1159.28 579.564 1161.4 578.005C1163.52 576.446 1165.27 574.442 1166.54 572.132C1167.8 569.823 1168.54 567.265 1168.7 564.638L1230.34 547.528L1205.28 525.681L1150.6 545.279C1146.17 545.292 1141.89 546.93 1138.59 549.882C1135.29 552.834 1133.18 556.896 1132.67 561.298C1132.16 565.7 1133.29 570.135 1135.83 573.764C1138.37 577.393 1142.16 579.963 1146.47 580.987Z" fill="#FFB8B8"/>
<path d="M1172.08 571.931L1168.33 536.295L1219.81 507.886L1186.25 467.248L1191.73 421.598L1205.36 415.752L1205.79 416.297C1212.22 424.568 1268.62 497.359 1268.62 506.358C1268.62 515.6 1257.83 542.741 1243.07 550.123C1228.83 557.245 1175.36 571.086 1173.09 571.672L1172.08 571.931Z" fill="#2F2E41"/>
<path d="M1439.21 1000H757.254C756.779 1000 756.324 999.811 755.988 999.476C755.652 999.14 755.464 998.685 755.464 998.21C755.464 997.735 755.652 997.28 755.988 996.944C756.324 996.608 756.779 996.42 757.254 996.42H1439.21C1439.68 996.42 1440.14 996.608 1440.48 996.944C1440.81 997.28 1441 997.735 1441 998.21C1441 998.685 1440.81 999.14 1440.48 999.476C1440.14 999.811 1439.68 1000 1439.21 1000Z" fill="#CCCCCC"/>
</g>
<defs>
<clipPath id="clip0_638_207">
<rect width="1441" height="1000" fill="white"/>
</clipPath>
</defs>
</svg>
